# xmcd
#
# Track frame offsets:
#	150
#	9546
#	18867
#	27640
#	37951
#	47668
#	58710
#	67647
#	77944
#	88896
#	100375
#	112365
#	123742
#	133606
#	144608
#	153565
#	165896
#	177351
#	186872
#	198055
#	209851
#	221420
#	233962
#	243152
#	253720
#	261580
#
# Disc length: 3621 seconds
#
# Revision: 0
# Processed by: cddbd v1.4PL0 Copyright (c) Steve Scherf et al.
# Submitted via: EasyCDDAExtractor 4.6.0.1
#
DISCID=7d0e231a
DTITLE=Various Artist - Explosive Doo-Wops  Vol 02
DYEAR=1900
DGENRE=blues
TTITLE0=Visuals - The Submarine Races
TTITLE1=Del Rays - The One I Adore
TTITLE2=Richie Cordell and group - Tick Tock
TTITLE3=Danny Winchell and group - Come Back My Baby
TTITLE4=Melodeers - Wishing Is For Fools
TTITLE5=Lonnie Heard and group - A Sunday Kind Of Love
TTITLE6=Daybreakers - Up, Up And Away
TTITLE7=Red Caps (Steve Gibson and the) - Cheryl Lee
TTITLE8=Two Jays (Jimmy Allen and the) - My Girl Is A Pearl
TTITLE9=Nite Lites (Nickie and the) - Tell Me You Care
TTITLE10=Cupids - (If You Cry) True Love, True Love
TTITLE11=Kac-Ties - Donald Duck
TTITLE12=Ron Dell (bb The Upstarts) - Time
TTITLE13=Royal Jokers - Don't Leave Me Fanny
TTITLE14=Jokers (Johnny and the) - Do-Re-Mi Rock
TTITLE15=Scamps - Yes, My Baby
TTITLE16=Class Mates (Marc Cavell and the) - I Didn't Lie
TTITLE17=Volumes - Teenage Paradise
TTITLE18=Jiving Juniors - Moonlight Lover
TTITLE19=Rivals - Rickety Tick
TTITLE20=Five Playboys - Why Be A Fool
TTITLE21=Deltas (Jay and the) - Bells Are Ringing
TTITLE22=Dories - Swingin' Sh-Boom
TTITLE23=Rockin' Chairs (Lenny Dean and the) - Memories Of Love
TTITLE24=Latons - Love Me
TTITLE25=Lanes - Open Up Your Heart (And Let Me In)
EXTD=
EXTT0=
EXTT1=
EXTT2=
EXTT3=
EXTT4=
EXTT5=
EXTT6=
EXTT7=
EXTT8=
EXTT9=
EXTT10=
EXTT11=
EXTT12=
EXTT13=
EXTT14=
EXTT15=
EXTT16=
EXTT17=
EXTT18=
EXTT19=
EXTT20=
EXTT21=
EXTT22=
EXTT23=
EXTT24=
EXTT25=
PLAYORDER=
